<svg xmlns="http://www.w3.org/2000/svg" xmlns:xlink="http://www.w3.org/1999/xlink" width="1920" height="1080">
    <rect x="0" y="0" width="100%" height="100%" fill="#43567B"/>

    <path d="M 0,322 L 1920,400 V 500 H 0" fill="#3D5076"/>

    <path d="M 1920,480 C 1800,470 1700,450 1920,460 V 400 C 1750,400 1690,400 1675,420 C 1520,425 1520,430 1680,445 C 1600,450 1400,440 1345,445 L 1270,447 Q 1240,442 1200,445 L 1040,440 V 1080 H 1920" fill="#505458"/>

    <path d="M 1421,604 1390,600 1389,588 1421,589" fill="#424A5D"/>
    <path d="M 1426,592 1379,589 1387,576 1375,556 1431,560 1438,578" fill="#574E5F"/>
    <path d="M 1508,559 1508,546 1524,539 1601,542 1608,551 1618,543 1670,544 1665,550" fill="#4F576C"/>

    <path d="M 1010,440 C 1080,428 1070,434 1087,434 C 1090,430 1100,420 1155,438 C 1160,436 1170,437 1182,441 C 1215,435 1225,455 1186,452 C 1180,452 1150,450 1100,445 C 1100,460 1090,440 1050,465" fill="#303A49"/>
    <path d="M 1243,449 C 1260,440 1295,430 1300,445 C 1300,440 1351,435 1351,450 C 1354,455 1240,455 1243,449" fill="#303A49"/>
    <path d="M 1920,450 C 1820,440 1820,420 1920,410" fill="#303A49"/>

    <path d="M 1415,805 C 1735,1005 1685,1035 1465,1015 L 1620,1080 H 1250 V 900" fill="#222F3F"/>
    <path d=" M1395,610 C 1415,630 1480,700 1420,800 C 1440,870 1375,955 1325,955 C 1325,1000 1295,1050 1275,1050 L 1245,740" fill="#212B3D"/>
    <path d="M 0,390 C 400,390 605,405 640,420 C 740,400 1000,400 1070,470 C 1370,400 1550,740 1250,740 C 1300,800 1315,1000 1265,1080 H 0" fill="#384348"/>
    
    <path d="M 1920,975 C 1720,850 1620,790 1680,760 L 1700,775 C 1660,800 1710,820 1920,940" fill="#5C5C69"/>
    <path d="M 1920,910 C 1820,880 1760,850 1760,820 C 1740,810 1725,805 1715,785 C 1635,745 1620,690 1660,640 C 1620,630 1565,620 1545,605 C 1525,610 1490,610 1480,600 C 1380,650 1425,505 1515,555 C 1540,545 1560,540 1570,555 C 1600,535 1635,565 1675,540 C 1675,490 1755,485 1770,535 C 1800,525 1870,510 1880,545 C 1895,545 1900,520 1920,530" fill="#333D47"/>

    <path d="M 1435,527 C 1535,530 1440,551 1418,541 C 1390,540 1430,490 1435,527" fill="#303A49"/>
</svg>